HIERARCHY
ROOT Torso
{
	OFFSET 0.000000 0.000000 0.000000
	CHANNELS 6 Xposition Yposition Zposition Zrotation Yrotation Xrotation 
	JOINT LHip
	{
		OFFSET 0.000000 0.000000 0.000000
		CHANNELS 3 Zrotation Yrotation Xrotation
		JOINT LThigh
		{
			OFFSET -0.010000 -0.055000 -0.055000
			CHANNELS 3 Zrotation Yrotation Xrotation
			JOINT LLeg
			{
				OFFSET 0.015000 -0.160000 0.000000
				CHANNELS 3 Zrotation Yrotation Xrotation
				JOINT LFoot
				{
					OFFSET -0.010000 -0.160000 0.000000
					CHANNELS 3 Zrotation Yrotation Xrotation
					JOINT LToes
					{
						OFFSET 0.090000 0.000000 0.000000
						CHANNELS 3 Zrotation Yrotation Xrotation
						End Site
						{
							OFFSET 0.000000 0.000000 0.000000
						}
					}
				}
			}
		}
	}
	JOINT RHip
	{
		OFFSET 0.000000 0.000000 0.000000
		CHANNELS 3 Zrotation Yrotation Xrotation
		JOINT RThigh
		{
			OFFSET -0.010000 -0.055000 0.055000
			CHANNELS 3 Zrotation Yrotation Xrotation
			JOINT RLeg
			{
				OFFSET 0.015000 -0.160000 0.000000
				CHANNELS 3 Zrotation Yrotation Xrotation
				JOINT RFoot
				{
					OFFSET -0.010000 -0.160000 0.000000
					CHANNELS 3 Zrotation Yrotation Xrotation
					JOINT RToes
					{
						OFFSET 0.090000 0.000000 0.000000
						CHANNELS 3 Zrotation Yrotation Xrotation
						End Site
						{
							OFFSET 0.000000 0.000000 0.000000
						}
					}
				}
			}
		}
	}
	JOINT Neck
	{
		OFFSET 0.000000 0.135000 0.000000
		CHANNELS 3 Zrotation Yrotation Xrotation
		JOINT Head
		{
			OFFSET 0.000000 0.075000 0.000000
			CHANNELS 3 Zrotation Yrotation Xrotation
			End Site
			{
				OFFSET 0.000000 0.000000 0.000000
			}
		}
	}
	JOINT LUpperarm
	{
		OFFSET 0.000000 0.150000 -0.098000
		CHANNELS 3 Zrotation Yrotation Xrotation
		JOINT LLowerarm
		{
			OFFSET 0.090000 0.009000 0.000000
			CHANNELS 3 Zrotation Yrotation Xrotation
			JOINT LHand
			{
				OFFSET 0.105000 0.000000 0.000000
				CHANNELS 3 Zrotation Yrotation Xrotation
				End Site
				{
					OFFSET 0.000000 0.000000 0.000000
				}
			}
		}
	}
	JOINT RUpperarm
	{
		OFFSET 0.000000 0.150000 0.098000
		CHANNELS 3 Zrotation Yrotation Xrotation
		JOINT RLowerarm
		{
			OFFSET 0.090000 0.009000 0.000000
			CHANNELS 3 Zrotation Yrotation Xrotation
			JOINT RHand
			{
				OFFSET 0.105000 0.000000 0.000000
				CHANNELS 3 Zrotation Yrotation Xrotation
				End Site
				{
					OFFSET 0.000000 0.000000 0.000000
				}
			}
		}
	}
}
MOTION
Frames: 9
Frame Time: 0.040000
-0.015705 0.428060 -0.463136 159.670029 -81.162822 -165.312771 22.234723 -16.808141 -2.581104 -31.001704 -6.926707 -1.807209 -13.681962 13.302484 -2.762628 -12.264297 21.325889 -33.527784 0.004000 0.410900 1.128999 10.376833 32.159202 11.069013 -9.326566 9.991720 5.398678 -14.327564 -19.584463 8.395266 -5.324176 -38.298017 -42.909780 -0.140600 2.416799 -6.658997 -6.341100 3.706055 17.045473 -1.248199 1.127799 2.005699 -100.668295 -5.608253 91.619663 -3.850753 14.158891 -2.454599 0.000000 0.000000 3.419598 -101.810653 17.752770 99.848095 5.059035 19.006443 -4.235298 0.000000 0.000000 -17.720391 
-0.015741 0.428154 -0.463188 173.183531 -85.952610 -178.950966 25.007960 -19.898942 -4.086969 -30.814682 -7.381229 -1.533537 -14.132565 12.927051 -2.409565 -11.948876 20.745464 -33.700684 0.004700 0.443300 1.218099 10.536555 30.004037 9.854149 -7.739604 9.156809 5.311396 -13.825158 -20.183276 8.669524 -5.297937 -38.930777 -42.912680 -0.148500 2.483499 -6.843997 -1.502404 2.262284 17.912283 -1.232199 1.138799 2.028799 -98.535783 -4.956046 91.355717 -2.947386 14.479938 -2.491299 0.000000 0.000000 3.164998 -103.249946 18.497581 99.966888 5.678846 20.205892 -4.192998 0.000000 0.000000 -17.749491 
-0.015741 0.428168 -0.463235 170.928697 -84.970114 -176.639838 24.605960 -19.364817 -3.823159 -30.818823 -7.340144 -1.563542 -14.043699 13.024344 -2.507353 -11.937010 20.865123 -33.737884 0.007500 0.559800 1.538399 10.609184 30.461615 10.004601 -7.918621 9.393815 5.352294 -13.936246 -20.067236 8.618938 -5.319910 -38.889249 -42.925980 -0.146500 2.466599 -6.796997 -2.020463 2.409850 17.715039 -1.227899 1.132899 2.027099 -98.870760 -5.094929 91.232865 -3.019212 14.736497 -2.587698 0.000000 0.000000 2.348199 -102.930877 18.349970 99.962089 5.582740 20.047724 -4.181698 0.000000 0.000000 -17.644491 
-0.015699 0.428112 -0.463169 162.798108 -82.044306 -168.428908 22.952988 -17.462386 -2.879597 -30.934345 -7.025677 -1.762046 -13.839859 13.291533 -2.720244 -12.052302 21.100591 -33.680884 0.006300 0.511500 1.405599 10.538961 31.784257 10.770212 -8.983201 9.768430 5.405289 -14.111157 -19.655657 8.358719 -5.386060 -38.450492 -42.873381 -0.148200 2.480599 -6.835697 -4.701678 3.246032 17.265853 -1.234899 1.136599 2.042699 -100.289331 -5.505014 91.595280 -3.653608 14.441491 -2.543999 0.000000 0.000000 3.335998 -102.061175 17.893839 99.865147 5.232542 19.368967 -4.198298 0.000000 0.000000 -17.406991 
-0.015683 0.428110 -0.463166 160.961302 -81.514186 -166.576488 22.542821 -17.040914 -2.694422 -30.975231 -7.011577 -1.802021 -13.756957 13.314942 -2.744729 -12.090392 21.160909 -33.654684 0.006300 0.513900 1.411999 10.461680 32.036111 10.945928 -9.237131 9.841125 5.396722 -14.193291 -19.591075 8.346630 -5.388216 -38.361946 -42.864981 -0.152200 2.513999 -6.928497 -5.562401 3.512630 17.139878 -1.238099 1.141299 2.047799 -100.598368 -5.617858 91.701203 -3.809245 14.427672 -2.573799 0.000000 0.000000 3.573098 -101.890045 17.811104 99.828275 5.208810 19.156037 -4.189398 0.000000 0.000000 -17.196392 
-0.015666 0.428104 -0.463166 158.145901 -80.793841 -163.749484 21.914621 -16.421623 -2.433999 -31.033067 -7.010928 -1.854821 -13.650355 13.330997 -2.760352 -12.158525 21.252669 -33.610284 0.005900 0.495800 1.362399 10.297743 32.370909 11.210875 -9.630519 9.948475 5.379850 -14.279877 -19.507927 8.331646 -5.401213 -38.253893 -42.848381 -0.158200 2.563099 -7.064796 -7.082405 3.969254 16.939755 -1.247299 1.146999 2.049699 -101.005133 -5.774327 91.835438 -4.035429 14.366750 -2.605899 0.000000 0.000000 3.831298 -101.655938 17.700878 99.775253 5.174119 18.791674 -4.180197 0.000000 0.000000 -16.963592 
-0.015655 0.428104 -0.463174 155.123160 -80.145094 -160.726521 21.254649 -15.799754 -2.184207 -31.089118 -7.049710 -1.904762 -13.570285 13.320632 -2.744115 -12.215157 21.315423 -33.574684 0.005500 0.479400 1.317199 10.068942 32.652621 11.486973 -10.063532 10.041929 5.350070 -14.310817 -19.438886 8.315077 -5.425697 -38.170865 -42.824881 -0.166600 2.629799 -7.249896 -8.970971 4.517901 16.715639 -1.260999 1.152299 2.053599 -101.363645 -5.926260 91.978277 -4.271364 14.260549 -2.633899 0.000000 0.000000 4.066098 -101.439094 17.606892 99.711585 5.161553 18.351920 -4.168998 0.000000 0.000000 -16.751792 
-0.015655 0.428107 -0.463191 152.300934 -79.646367 -157.912874 20.658495 -15.276246 -1.979808 -31.142143 -7.139525 -1.945435 -13.503023 13.274812 -2.702041 -12.255274 21.350511 -33.546884 0.006000 0.501900 1.379199 9.817256 32.837981 11.731245 -10.450161 10.128653 5.306279 -14.327492 -19.404976 8.322371 -5.424158 -38.120217 -42.822781 -0.175200 2.696099 -7.433896 -10.945598 5.067848 16.493048 -1.276399 1.154999 2.061399 -101.616093 -6.050154 92.104070 -4.476624 14.140772 -2.660699 0.000000 0.000000 4.174898 -101.267781 17.543403 99.648367 5.176238 17.906805 -4.157397 0.000000 0.000000 -16.586892 
-0.015658 0.428110 -0.463208 149.695566 -79.265765 -155.321182 20.131816 -14.844761 -1.812828 -31.195205 -7.272815 -1.982489 -13.451518 13.203037 -2.642949 -12.276603 21.356308 -33.527984 0.007800 0.571000 1.569199 9.556468 32.937215 11.945701 -10.793346 10.202615 5.248506 -14.332253 -19.396792 8.342648 -5.388642 -38.082981 -42.845481 -0.182300 2.750199 -7.583996 -12.915605 5.591232 16.271467 -1.289599 1.155299 2.073799 -101.775142 -6.145729 92.225698 -4.649097 13.987337 -2.675699 0.000000 0.000000 4.211598 -101.143629 17.502346 99.596633 5.203075 17.483437 -4.150298 0.000000 0.000000 -16.490492 
